<mxfile host="app.diagrams.net" agent="Mozilla/5.0 (Windows NT 10.0; Win64; x64) AppleWebKit/537.36 (KHTML, like Gecko) Chrome/133.0.0.0 Safari/537.36 Edg/133.0.0.0" version="26.0.16">
  <diagram name="Page-1" id="TsZkmd-If2BHdjor7ZG3">
    <mxGraphModel dx="2038" dy="651" grid="1" gridSize="10" guides="1" tooltips="1" connect="1" arrows="1" fold="1" page="1" pageScale="1" pageWidth="850" pageHeight="1100" math="0" shadow="0">
      <root>
        <mxCell id="0" />
        <mxCell id="1" parent="0" />
        <mxCell id="zFH4dkiDRFHltv2V4flr-1" value="" style="ellipse;whiteSpace=wrap;html=1;aspect=fixed;" vertex="1" parent="1">
          <mxGeometry x="30" y="40" width="190" height="190" as="geometry" />
        </mxCell>
        <mxCell id="zFH4dkiDRFHltv2V4flr-2" value="driver node" style="text;html=1;align=center;verticalAlign=middle;whiteSpace=wrap;rounded=0;" vertex="1" parent="1">
          <mxGeometry x="60" y="50" width="90" height="60" as="geometry" />
        </mxCell>
        <mxCell id="zFH4dkiDRFHltv2V4flr-3" value="spark" style="text;html=1;align=center;verticalAlign=middle;whiteSpace=wrap;rounded=0;" vertex="1" parent="1">
          <mxGeometry x="30" y="110" width="60" height="30" as="geometry" />
        </mxCell>
        <mxCell id="zFH4dkiDRFHltv2V4flr-4" value="pyspark code application" style="text;html=1;align=center;verticalAlign=middle;whiteSpace=wrap;rounded=0;" vertex="1" parent="1">
          <mxGeometry x="80" y="110" width="70" height="30" as="geometry" />
        </mxCell>
        <mxCell id="zFH4dkiDRFHltv2V4flr-5" value="" style="ellipse;whiteSpace=wrap;html=1;aspect=fixed;" vertex="1" parent="1">
          <mxGeometry x="290" y="20" width="210" height="210" as="geometry" />
        </mxCell>
        <mxCell id="zFH4dkiDRFHltv2V4flr-6" value="spark" style="text;html=1;align=center;verticalAlign=middle;whiteSpace=wrap;rounded=0;" vertex="1" parent="1">
          <mxGeometry x="340" y="40" width="60" height="35" as="geometry" />
        </mxCell>
        <mxCell id="zFH4dkiDRFHltv2V4flr-7" value="" style="endArrow=none;html=1;rounded=0;entryX=-0.01;entryY=0.448;entryDx=0;entryDy=0;entryPerimeter=0;" edge="1" parent="1" target="zFH4dkiDRFHltv2V4flr-5">
          <mxGeometry width="50" height="50" relative="1" as="geometry">
            <mxPoint x="220" y="150" as="sourcePoint" />
            <mxPoint x="270" y="100" as="targetPoint" />
          </mxGeometry>
        </mxCell>
        <mxCell id="zFH4dkiDRFHltv2V4flr-8" value="master" style="text;html=1;align=center;verticalAlign=middle;whiteSpace=wrap;rounded=0;" vertex="1" parent="1">
          <mxGeometry x="340" y="80" width="60" height="30" as="geometry" />
        </mxCell>
        <mxCell id="zFH4dkiDRFHltv2V4flr-10" value="worker1&lt;div&gt;sprak&lt;/div&gt;&lt;div&gt;4GBRAM&lt;/div&gt;&lt;div&gt;4 cores&lt;/div&gt;&lt;div&gt;executor&lt;/div&gt;&lt;div&gt;4 slots&lt;/div&gt;&lt;div&gt;4 tasks&lt;/div&gt;" style="ellipse;whiteSpace=wrap;html=1;aspect=fixed;" vertex="1" parent="1">
          <mxGeometry x="640" y="10" width="150" height="150" as="geometry" />
        </mxCell>
        <mxCell id="zFH4dkiDRFHltv2V4flr-13" value="worker1&lt;div&gt;sprak&lt;/div&gt;&lt;div&gt;4GBRAM&lt;/div&gt;&lt;div&gt;4 cores&lt;/div&gt;&lt;div&gt;executor&lt;/div&gt;&lt;div&gt;4 slots&lt;/div&gt;&lt;div&gt;4 tasks&lt;/div&gt;" style="ellipse;whiteSpace=wrap;html=1;aspect=fixed;" vertex="1" parent="1">
          <mxGeometry x="650" y="180" width="150" height="150" as="geometry" />
        </mxCell>
        <mxCell id="zFH4dkiDRFHltv2V4flr-14" value="worker1&lt;div&gt;sprak&lt;/div&gt;&lt;div&gt;4GBRAM&lt;/div&gt;&lt;div&gt;4 cores&lt;/div&gt;&lt;div&gt;executor&lt;/div&gt;&lt;div&gt;4 slots&lt;/div&gt;&lt;div&gt;4 tasks&lt;/div&gt;" style="ellipse;whiteSpace=wrap;html=1;aspect=fixed;" vertex="1" parent="1">
          <mxGeometry x="640" y="370" width="150" height="150" as="geometry" />
        </mxCell>
        <mxCell id="zFH4dkiDRFHltv2V4flr-15" value="worker1&lt;div&gt;sprak&lt;/div&gt;&lt;div&gt;4GBRAM&lt;/div&gt;&lt;div&gt;4 cores&lt;/div&gt;&lt;div&gt;executor&lt;/div&gt;&lt;div&gt;4 slots&lt;/div&gt;&lt;div&gt;4 tasks&lt;/div&gt;" style="ellipse;whiteSpace=wrap;html=1;aspect=fixed;" vertex="1" parent="1">
          <mxGeometry x="390" y="380" width="150" height="150" as="geometry" />
        </mxCell>
        <mxCell id="zFH4dkiDRFHltv2V4flr-17" value="total available slots 16&lt;div&gt;cluster capacity: 16GB RAM 16 core cpu. data load 1core.&lt;/div&gt;&lt;div&gt;when the job assign to slot, then slot will become a task&lt;/div&gt;" style="whiteSpace=wrap;html=1;aspect=fixed;" vertex="1" parent="1">
          <mxGeometry x="-100" y="300" width="210" height="210" as="geometry" />
        </mxCell>
        <mxCell id="zFH4dkiDRFHltv2V4flr-22" value="" style="endArrow=classic;startArrow=classic;html=1;rounded=0;entryX=-0.003;entryY=0.627;entryDx=0;entryDy=0;entryPerimeter=0;" edge="1" parent="1" source="zFH4dkiDRFHltv2V4flr-5" target="zFH4dkiDRFHltv2V4flr-10">
          <mxGeometry width="50" height="50" relative="1" as="geometry">
            <mxPoint x="400" y="370" as="sourcePoint" />
            <mxPoint x="450" y="320" as="targetPoint" />
          </mxGeometry>
        </mxCell>
        <mxCell id="zFH4dkiDRFHltv2V4flr-23" value="" style="endArrow=classic;startArrow=classic;html=1;rounded=0;entryX=-0.003;entryY=0.627;entryDx=0;entryDy=0;entryPerimeter=0;exitX=0.97;exitY=0.614;exitDx=0;exitDy=0;exitPerimeter=0;" edge="1" parent="1" source="zFH4dkiDRFHltv2V4flr-5">
          <mxGeometry width="50" height="50" relative="1" as="geometry">
            <mxPoint x="520" y="230" as="sourcePoint" />
            <mxPoint x="660" y="218" as="targetPoint" />
          </mxGeometry>
        </mxCell>
        <mxCell id="zFH4dkiDRFHltv2V4flr-24" value="" style="endArrow=classic;startArrow=classic;html=1;rounded=0;exitX=0.974;exitY=0.713;exitDx=0;exitDy=0;exitPerimeter=0;" edge="1" parent="1" source="zFH4dkiDRFHltv2V4flr-5" target="zFH4dkiDRFHltv2V4flr-14">
          <mxGeometry width="50" height="50" relative="1" as="geometry">
            <mxPoint x="520" y="136" as="sourcePoint" />
            <mxPoint x="660" y="124" as="targetPoint" />
          </mxGeometry>
        </mxCell>
        <mxCell id="zFH4dkiDRFHltv2V4flr-25" value="" style="endArrow=classic;startArrow=classic;html=1;rounded=0;exitX=0.819;exitY=0.884;exitDx=0;exitDy=0;exitPerimeter=0;" edge="1" parent="1" source="zFH4dkiDRFHltv2V4flr-5" target="zFH4dkiDRFHltv2V4flr-15">
          <mxGeometry width="50" height="50" relative="1" as="geometry">
            <mxPoint x="530" y="146" as="sourcePoint" />
            <mxPoint x="670" y="134" as="targetPoint" />
          </mxGeometry>
        </mxCell>
        <mxCell id="zFH4dkiDRFHltv2V4flr-26" value="cluster manager" style="text;html=1;align=center;verticalAlign=middle;whiteSpace=wrap;rounded=0;" vertex="1" parent="1">
          <mxGeometry x="320" y="110" width="60" height="30" as="geometry" />
        </mxCell>
        <mxCell id="zFH4dkiDRFHltv2V4flr-27" value="spark native&lt;div&gt;YARN&lt;/div&gt;&lt;div&gt;KUBERNATES&lt;/div&gt;" style="text;html=1;align=center;verticalAlign=middle;whiteSpace=wrap;rounded=0;" vertex="1" parent="1">
          <mxGeometry x="390" y="110" width="60" height="30" as="geometry" />
        </mxCell>
        <mxCell id="zFH4dkiDRFHltv2V4flr-28" value="Text" style="text;html=1;align=center;verticalAlign=middle;whiteSpace=wrap;rounded=0;" vertex="1" parent="1">
          <mxGeometry x="390" y="330" width="60" height="30" as="geometry" />
        </mxCell>
      </root>
    </mxGraphModel>
  </diagram>
</mxfile>
